<svg xmlns="http://www.w3.org/2000/svg" aria-hidden="true" style="position:absolute;width:0;height:0;overflow:hidden">
  <defs>
<symbol id="icon-star" viewBox="0 0 32 32">
      <path d="M13.826 3.262c.684-2.106 3.663-2.106 4.348 0l1.932 5.945a2.285 2.285 0 0 0 2.174 1.579h6.251c2.214 0 3.135 2.833 1.344 4.135l-5.057 3.674a2.286 2.286 0 0 0-.83 2.556l1.931 5.945c.684 2.106-1.726 3.857-3.517 2.555l-5.057-3.674a2.286 2.286 0 0 0-2.687 0l-5.057 3.674c-1.791 1.302-4.202-.45-3.517-2.555l1.932-5.945a2.287 2.287 0 0 0-.83-2.556l-5.057-3.674c-1.791-1.302-.871-4.135 1.344-4.135h6.251c.99 0 1.868-.638 2.174-1.579l1.932-5.945z"/>
    </symbol>
 <symbol id="icon-heart" viewBox="0 0 32 32">
      <path stroke-linecap="round" stroke-linejoin="round" stroke-width="2.4" d="M27.787 6.147a7.345 7.345 0 0 0-5.187-2.15 7.33 7.33 0 0 0-5.187 2.15L16 7.56l-1.413-1.413a7.333 7.333 0 0 0-10.374 0 7.333 7.333 0 0 0 0 10.374L16 28.308l11.787-11.787a7.345 7.345 0 0 0 2.15-5.187 7.33 7.33 0 0 0-2.15-5.187z"/>
    </symbol>
    <symbol id="icon-close-black-18dp-2-1" viewBox="0 0 32 32">
<path d="M32 3.223l-3.223-3.223-12.777 12.777-12.777-12.777-3.223 3.223 12.777 12.777-12.777 12.777 3.223 3.223 12.777-12.777 12.777 12.777 3.223-3.223-12.777-12.777 12.777-12.777z"></path>
</symbol>
 <symbol id="icon-trash" viewBox="0 0 32 32">
<path d="M14.934 1.367c-1.493 0-2.423-0.065-3.402 0.434-0.746 0.38-1.35 0.984-1.73 1.73-0.465 0.912-0.408 1.847-0.402 3.168h-5.398c-0 0-0.001 0-0.001 0-0.718 0-1.3 0.582-1.3 1.3 0 0 0 0.001 0 0.001v-0c0 0 0 0 0 0.001 0 0.718 0.582 1.3 1.3 1.3 0 0 0.001 0 0.001 0h1.367v13.633c0 2.24-0.066 3.54 0.578 4.805 0.508 0.997 1.319 1.808 2.316 2.316 1.265 0.644 2.564 0.578 4.805 0.578h5.867c2.24 0 3.54 0.066 4.805-0.578 0.997-0.508 1.808-1.32 2.316-2.316 0.644-1.265 0.578-2.564 0.578-4.805v-13.633h1.367c0 0 0 0 0.001 0 0.718 0 1.3-0.582 1.3-1.3 0-0 0-0.001 0-0.001v0c0-0 0-0 0-0.001 0-0.718-0.582-1.3-1.3-1.3-0 0-0.001 0-0.001 0h-5.398c0.006-1.321 0.063-2.256-0.402-3.168-0.38-0.746-0.984-1.35-1.73-1.73-0.979-0.499-1.909-0.434-3.402-0.434zM14.934 3.965h2.133c1.493 0 2.057 0.070 2.219 0.152 0.257 0.131 0.467 0.337 0.598 0.594 0 0.001 0 0.001 0 0.002s0 0.001 0 0.002v-0c0.074 0.144 0.125 0.819 0.137 1.984h-8.039c0.012-1.166 0.063-1.84 0.137-1.984 0.131-0.257 0.336-0.467 0.594-0.598 0.001 0 0.001 0 0.002 0s0.001 0 0.002 0h-0c0.162-0.082 0.725-0.152 2.219-0.152zM7.965 9.301h16.070v13.633c0 2.24-0.069 3.178-0.297 3.625-0.259 0.508-0.672 0.921-1.18 1.18-0.447 0.228-1.385 0.297-3.625 0.297h-5.867c-2.24 0-3.178-0.069-3.625-0.297-0.508-0.259-0.921-0.672-1.18-1.18-0.228-0.447-0.297-1.385-0.297-3.625zM13.332 14.035c-0.716 0.002-1.295 0.581-1.297 1.297v6.668c0 0 0 0 0 0.001 0 0.717 0.58 1.298 1.297 1.3h0c0 0 0.001 0 0.001 0 0.718 0 1.3-0.582 1.3-1.3 0-0 0-0.001 0-0.001v0-6.668c-0.002-0.717-0.583-1.297-1.3-1.297-0 0-0.001 0-0.001 0h0zM18.668 14.035c-0 0-0 0-0.001 0-0.717 0-1.298 0.58-1.3 1.297v6.668c0 0 0 0 0 0.001 0 0.718 0.582 1.3 1.3 1.3 0 0 0.001 0 0.001 0h-0c0.717-0.002 1.297-0.583 1.297-1.3 0-0 0-0.001 0-0.001v0-6.668c-0.002-0.716-0.581-1.295-1.297-1.297h-0z"></path>
</symbol>
    </defs>
</svg>